# xmcd
#
# Track frame offsets: 
#        150
#        18106
#        28186
#        41683
#        52704
#        68501
#        83931
#        102386
#        123210
#        138186
#        155007
#
# Disc length: 2243 seconds
#
# Revision: 2
# Processed by: cddbd v1.5.1PL2 Copyright (c) Steve Scherf et al.
# Submitted via: ExactAudioCopy v0.95a4
#
DISCID=8208c10b
DTITLE=Kris Kristofferson - This Old Road
DYEAR=2006
DGENRE=Country
TTITLE0=This Old Road
TTITLE1=Pilgrim's Progress
TTITLE2=The Last Thing To Go
TTITLE3=Wild American
TTITLE4=In The News
TTITLE5=The Burden Of Freedom
TTITLE6=Chase The Feeling
TTITLE7=Holy Creation
TTITLE8=The Show Goes On
TTITLE9=Thank You For A Life
TTITLE10=Final Attraction
EXTD=
EXTT0=
EXTT1=
EXTT2=
EXTT3=
EXTT4=
EXTT5=
EXTT6=
EXTT7=
EXTT8=
EXTT9=
EXTT10=
PLAYORDER=
